<svg xmlns="http://www.w3.org/2000/svg" width="24" height="24" stroke="#000" stroke-linecap="round" stroke-linejoin="round" fill="#fff" fill-rule="evenodd"><path d="M4.459 12.0925c2.3921-.5137 2.0663-3.3727 1.9945-3.9976-.1171-.9632-1.25-2.647-2.7886-2.5136-1.9361.1737-2.219 2.9703-2.219 2.9703-.2619 1.2927.6267 4.055 3.0131 3.5409zm2.5405 4.9724c-.0702.2008-.2265.7151-.0913 1.1626.2667 1.0045 1.1385 1.0494 1.1385 1.0494h1.2525v-3.0622H7.958c-.6028.1797-.8936.6492-.9585.8502zm1.8993-9.7665c1.3212 0 2.3891-1.5204 2.3891-3.4003S10.22.5 8.8988.5 6.5093 2.0201 6.5093 3.8981s1.0709 3.4003 2.3895 3.4003zm5.6908.225c1.7658.2292 2.9013-1.6553 3.1269-3.0836s-.9091-3.0832-2.1591-3.3683-2.8167 1.7196-2.9594 3.0275c-.1705 1.5996.2286 3.1977 1.9916 3.4244zm4.3264 8.396s-2.7319-2.1138-4.3271-4.3982c-2.1619-3.3684-5.2329-1.9977-6.2605-.2846-1.0225 1.7131-2.6169 2.7964-2.8433 3.0833s-3.3 1.9402-2.6185 4.9676 3.0759 2.968 3.0759 2.968 1.7644.1736 3.811-.2845 3.8108.1132 3.8108.1132 4.7828 1.6015 6.0914-1.4814-.7397-4.6834-.7397-4.6834zm-8.1833 4.5887H7.6232c-1.3426-.2679-1.8775-1.1842-1.9452-1.3403s-.4475-.895-.2456-2.1482c.5799-1.8777 2.2349-2.0124 2.2349-2.0124h1.655v-2.0345l1.4101.0215v7.5139zm5.7914-.0215h-3.5784c-1.3871-.3575-1.4518-1.3426-1.4518-1.3426v-3.9572l1.4518-.0236v3.5564c.0883.3796.5597.4482.5597.4482h1.4744v-3.9807h1.544v5.2995zm5.065-10.5647c0-.6831-.5676-2.7413-2.6731-2.7413s-2.3904 1.9422-2.3904 3.3152c0 1.3101.1106 3.1392 2.7301 3.0814s2.3334-2.9683 2.3334-3.6553zm0 0" fill="#3245df" fill-rule="nonzero" stroke="none"/></svg>