<svg xmlns="http://www.w3.org/2000/svg" width="24" height="24" stroke="none" stroke-linecap="round" stroke-linejoin="round" fill="#fff" fill-rule="nonzero"><path d="M22.2801 11.7444c0-.9041-.0733-1.5647-.2326-2.2489H11.7199v4.0824h6.0625c-.1222 1.0145-.7829 2.542-2.2498 3.5683l-.0202.1374 3.2658 2.5294.2259.0228c2.0778-1.9194 3.276-4.7421 3.276-8.0914" fill="#4285f4"/><path d="M11.7199 22.5001c2.9701 0 5.4633-.9775 7.2842-2.6643l-3.4715-2.6888c-.9285.6472-2.1747 1.0996-3.8127 1.0996-2.9087 0-5.3774-1.9185-6.2579-4.571l-.129.0109-3.3956 2.6281-.0438.123c1.8082 3.5936 5.524 6.0625 9.8263 6.0625" fill="#34a853"/><path d="M5.462 13.6755A6.77 6.77 0 0 1 5.0955 11.5c0-.7583.1348-1.4914.3539-2.1756l-.0059-.1457-3.4378-2.6702-.1129.0539C1.148 8.0538.7199 9.728.7199 11.5s.4281 3.4461 1.1737 4.9376l3.5684-2.7621" fill="#fbbc05"/><path d="M11.7199 4.7534c2.0652 0 3.4589.8923 4.2535 1.638l3.104-3.0317C17.1706 1.5878 14.69.5 11.7199.5 7.4176.5 3.7018 2.9688 1.8928 6.5625l3.5574 2.7619c.8923-2.6525 3.3611-4.571 6.2697-4.571" fill="#eb4335"/></svg>