<svg xmlns="http://www.w3.org/2000/svg" width="24" height="24" stroke="none" stroke-linecap="round" stroke-linejoin="round" fill="#f14919" fill-rule="nonzero"><path d="M12.6917 15.3225c-2.6767.5134-5.3167-.66-7.6267-1.925l-.055 2.75c2.9333 1.2834 6.1875 1.8975 9.35 1.4025 1.0981-.1416 2.1291-.6075 2.9608-1.3383 1.1184-1.1 1.0084-3.2083-.3025-4.125H17c-2.0625-1.6958-4.895-1.925-7.15-3.2542-.6875-.44-.1375-1.2833.55-1.3108 2.475-.4125 4.9225.5775 7.2325 1.375l.1375-2.4292c-2.8875-1.045-6.0225-1.7233-9.075-1.2375-1.1.275-2.2.6234-2.9792 1.43-.5069.5598-.7567 1.3061-.6888 2.0583S5.4743 10.16 6.0733 10.62c2.0442 1.6134 4.7392 1.8425 6.985 3.08.88.3575.5042 1.54-.3666 1.6225zm7.8283 4.565l-.8617-1.21a9.451 9.451 0 0 1-3.74 2.6675H15.9l.9167 1.155c1.4092-.5969 2.6748-1.4877 3.7125-2.6125z"/><path d="M19.6583 18.6775C21.4 16.7525 22.5 14.1858 22.5 11.39 22.5 5.3492 17.5775.5 11.5.5S.5 5.3675.5 11.3625c0 6.0225 4.9225 10.89 11 10.89 1.5675 0 3.0525-.3209 4.4-.9075l-.88-1.155c-1.1.4125-2.2825.66-3.52.66-2.5283.0122-4.9581-.9806-6.7545-2.7598a9.533 9.533 0 0 1-2.8247-6.7277c0-5.225 4.2809-9.46 9.5792-9.46s9.5883 4.2625 9.5883 9.4875c0 2.3375-.8708 4.4916-2.3008 6.1325l.8617 1.155zm-11.1466-5.28h.0091z"/></svg>